<svg enable-background="new 0 0 3000 2100" version="1.1" xml:space="preserve" xmlns="http://www.w3.org/2000/svg" viewBox="300 374.8 2400 1350.4">     <linearGradient id="af" x1="2642.4" x2="321.75" y1="1709.5" y2="369.74" gradientUnits="userSpaceOnUse"> 	<stop stop-color="#180447" offset="0"></stop> 	<stop stop-color="#5C06B3" offset="1"></stop> </linearGradient> <path d="m337.5 375h2325c20.6 0 37.5 16.9 37.5 37.5v1275c0 20.6-16.9 37.5-37.5 37.5h-2325c-20.6 0-37.5-16.9-37.5-37.5v-1275c0-20.6 16.9-37.5 37.5-37.5z" clip-rule="evenodd" fill="url(#af)" fill-rule="evenodd"></path> <g clip-rule="evenodd" fill="#FDFFA3" fill-rule="evenodd"> 	<path d="m2629.9 790.6c5.3 0 9.6 4.3 9.6 9.6 0-5.3 4.3-9.6 9.6-9.6-5.3 0-9.6-4.3-9.6-9.6-0.1 5.3-4.3 9.6-9.6 9.6z"></path> 	<path d="m2412.9 571c5.3 0 9.6 4.3 9.6 9.6 0-5.3 4.3-9.6 9.6-9.6-5.3 0-9.6-4.3-9.6-9.6 0 5.3-4.3 9.6-9.6 9.6z"></path> 	<path d="m2250.5 591.5c2.6 0 4.8 2.1 4.8 4.8 0-2.6 2.1-4.8 4.8-4.8-2.6 0-4.8-2.1-4.8-4.8 0 2.7-2.1 4.8-4.8 4.8z"></path> 	<path d="m2115.4 544.7c2.6 0 4.8 2.1 4.8 4.8 0-2.6 2.1-4.8 4.8-4.8-2.6 0-4.8-2.1-4.8-4.8 0 2.7-2.1 4.8-4.8 4.8z"></path> 	<path d="m2112.4 624.1c5.3 0 9.6 4.3 9.6 9.6 0-5.3 4.3-9.6 9.6-9.6-5.3 0-9.6-4.3-9.6-9.6 0 5.3-4.3 9.6-9.6 9.6z"></path> 	<path d="m1936.5 573.8c2.6 0 4.8 2.1 4.8 4.8 0-2.6 2.1-4.8 4.8-4.8-2.6 0-4.8-2.1-4.8-4.8 0 2.7-2.2 4.8-4.8 4.8z"></path> 	<path d="m1767.8 574.1c5.3 0 9.6 4.3 9.6 9.6 0-5.3 4.3-9.6 9.6-9.6-5.3 0-9.6-4.3-9.6-9.6 0 5.3-4.3 9.6-9.6 9.6z"></path> 	<path d="m1620.9 640.2c5.3 0 9.6 4.3 9.6 9.6 0-5.3 4.3-9.6 9.6-9.6-5.3 0-9.6-4.3-9.6-9.6 0 5.3-4.3 9.6-9.6 9.6z"></path> 	<path d="m1535.9 593.7c2.6 0 4.8 2.1 4.8 4.8 0-2.6 2.1-4.8 4.8-4.8-2.6 0-4.8-2.1-4.8-4.8 0 2.7-2.1 4.8-4.8 4.8z"></path> </g> <g clip-rule="evenodd" fill="#FDFFA3" fill-rule="evenodd"> 	<path d="m2283.7 1429.7c10.6 0 19.2 8.6 19.2 19.2 0-10.6 8.6-19.2 19.2-19.2-10.6 0-19.2-8.6-19.2-19.2 0 10.6-8.6 19.2-19.2 19.2z"></path> 	<path d="m2011.2 1570c10.6 0 19.2 8.6 19.2 19.2 0-10.6 8.6-19.2 19.2-19.2-10.6 0-19.2-8.6-19.2-19.2 0 10.6-8.6 19.2-19.2 19.2z"></path> 	<path d="m1840.7 1525.1c5.3 0 9.6 4.3 9.6 9.6 0-5.3 4.3-9.6 9.6-9.6-5.3 0-9.6-4.3-9.6-9.6 0 5.3-4.3 9.6-9.6 9.6z"></path> 	<path d="m2224.7 1654.5c5.3 0 9.6 4.3 9.6 9.6 0-5.3 4.3-9.6 9.6-9.6-5.3 0-9.6-4.3-9.6-9.6 0 5.3-4.3 9.6-9.6 9.6z"></path> 	<path d="m1560.3 1532.3c5.3 0 9.6 4.3 9.6 9.6 0-5.3 4.3-9.6 9.6-9.6-5.3 0-9.6-4.3-9.6-9.6 0 5.4-4.3 9.6-9.6 9.6z"></path> 	<path d="m2020.8 1662.6c5.3 0 9.6 4.3 9.6 9.6 0-5.3 4.3-9.6 9.6-9.6-5.3 0-9.6-4.3-9.6-9.6 0 5.3-4.3 9.6-9.6 9.6z"></path> 	<path d="m1684.6 1669c5.3 0 9.6 4.3 9.6 9.6 0-5.3 4.3-9.6 9.6-9.6-5.3 0-9.6-4.3-9.6-9.6 0 5.3-4.3 9.6-9.6 9.6z"></path> 	<path d="m2193 1535.4c5.3 0 9.6 4.3 9.6 9.6 0-5.3 4.3-9.6 9.6-9.6-5.3 0-9.6-4.3-9.6-9.6 0 5.3-4.3 9.6-9.6 9.6z"></path> 	<path d="m1719.2 1592.6c5.3 0 9.6 4.3 9.6 9.6 0-5.3 4.3-9.6 9.6-9.6-5.3 0-9.6-4.3-9.6-9.6 0 5.3-4.3 9.6-9.6 9.6z"></path> 	<path d="m1569.7 1662.8c2.6 0 4.8 2.1 4.8 4.8 0-2.6 2.1-4.8 4.8-4.8-2.6 0-4.8-2.1-4.8-4.8 0 2.7-2.2 4.8-4.8 4.8z"></path> 	<path d="m1880.6 1621.6c2.6 0 4.8 2.1 4.8 4.8 0-2.6 2.1-4.8 4.8-4.8-2.6 0-4.8-2.1-4.8-4.8 0 2.6-2.2 4.8-4.8 4.8z"></path> 	<path d="m2142.5 1456.2c2.6 0 4.8 2.1 4.8 4.8 0-2.6 2.1-4.8 4.8-4.8-2.6 0-4.8-2.1-4.8-4.8 0 2.6-2.1 4.8-4.8 4.8z"></path> 	<path d="m1652.5 1466.9c2.6 0 4.8 2.1 4.8 4.8 0-2.6 2.1-4.8 4.8-4.8-2.6 0-4.8-2.1-4.8-4.8 0 2.6-2.2 4.8-4.8 4.8z"></path> 	<path d="m2607.7 1405.4c2.6 0 4.8 2.1 4.8 4.8 0-2.6 2.1-4.8 4.8-4.8-2.6 0-4.8-2.1-4.8-4.8 0 2.7-2.2 4.8-4.8 4.8z"></path> 	<path d="m2563.4 1241.4c5.3 0 9.6 4.3 9.6 9.6 0-5.3 4.3-9.6 9.6-9.6-5.3 0-9.6-4.3-9.6-9.6 0 5.3-4.3 9.6-9.6 9.6z"></path> 	<path d="m2629.5 1163.7c5.3 0 9.6 4.3 9.6 9.6 0-5.3 4.3-9.6 9.6-9.6-5.3 0-9.6-4.3-9.6-9.6 0 5.3-4.3 9.6-9.6 9.6z"></path> </g> <g clip-rule="evenodd" fill="#6EE7FF" fill-rule="evenodd"> 	<path d="m713.4 839.7c10.6 0 19.2 8.6 19.2 19.2 0-10.6 8.6-19.2 19.2-19.2-10.6 0-19.2-8.6-19.2-19.2 0 10.6-8.6 19.2-19.2 19.2z"></path> 	<path d="m472.7 545.3c10.6 0 19.2 8.6 19.2 19.2 0-10.6 8.6-19.2 19.2-19.2-10.6 0-19.2-8.6-19.2-19.2-0.1 10.6-8.6 19.2-19.2 19.2z"></path> 	<path d="m625.6 625.6c6 0 10.9 4.9 10.9 10.9 0-6 4.9-10.9 10.9-10.9-6 0-10.9-4.9-10.9-10.9 0 6-4.8 10.9-10.9 10.9z"></path> 	<path d="m730.3 547.7c6 0 10.9 4.9 10.9 10.9 0-6 4.9-10.9 10.9-10.9-6 0-10.9-4.9-10.9-10.9 0 6-4.9 10.9-10.9 10.9z"></path> 	<path d="m906.9 790.4c6 0 10.9 4.9 10.9 10.9 0-6 4.9-10.9 10.9-10.9-6 0-10.9-4.9-10.9-10.9 0 6-4.9 10.9-10.9 10.9z"></path> 	<path d="m528.6 796.1c6 0 10.9 4.9 10.9 10.9 0-6 4.9-10.9 10.9-10.9-6 0-10.9-4.9-10.9-10.9 0 6-4.9 10.9-10.9 10.9z"></path> 	<path d="m617.8 745.9c6 0 10.9 4.9 10.9 10.9 0-6 4.9-10.9 10.9-10.9-6 0-10.9-4.9-10.9-10.9 0 6-4.9 10.9-10.9 10.9z"></path> 	<path d="m572.5 938.9c3 0 5.5 2.4 5.5 5.5 0-3 2.4-5.5 5.5-5.5-3 0-5.5-2.4-5.5-5.5-0.1 3-2.5 5.5-5.5 5.5z"></path> 	<path d="m506.1 696.8c3 0 5.5 2.4 5.5 5.5 0-3 2.4-5.5 5.5-5.5-3 0-5.5-2.4-5.5-5.5 0 3-2.5 5.5-5.5 5.5z"></path> 	<path d="m459.9 877.8c3 0 5.5 2.4 5.5 5.5 0-3 2.4-5.5 5.5-5.5-3 0-5.5-2.4-5.5-5.5 0 3-2.5 5.5-5.5 5.5z"></path> 	<path d="m396.7 519.3c3 0 5.5 2.4 5.5 5.5 0-3 2.4-5.5 5.5-5.5-3 0-5.5-2.4-5.5-5.5-0.1 3.1-2.5 5.5-5.5 5.5z"></path> 	<path d="m941.6 603.9c3 0 5.5 2.4 5.5 5.5 0-3 2.4-5.5 5.5-5.5-3 0-5.5-2.4-5.5-5.5 0 3.1-2.5 5.5-5.5 5.5z"></path> 	<path d="m880.8 685.9c3 0 5.5 2.4 5.5 5.5 0-3 2.4-5.5 5.5-5.5-3 0-5.5-2.4-5.5-5.5-0.1 3.1-2.5 5.5-5.5 5.5z"></path> 	<path d="m1255.2 658.5c3 0 5.5 2.4 5.5 5.5 0-3 2.4-5.5 5.5-5.5-3 0-5.5-2.4-5.5-5.5-0.1 3-2.5 5.5-5.5 5.5z"></path> 	<path d="m1135.2 632.8c6 0 10.9 4.9 10.9 10.9 0-6 4.9-10.9 10.9-10.9-6 0-10.9-4.9-10.9-10.9 0 6-4.8 10.9-10.9 10.9z"></path> 	<path d="m1107.4 800.8c6 0 10.9 4.9 10.9 10.9 0-6 4.9-10.9 10.9-10.9-6 0-10.9-4.9-10.9-10.9 0.1 6-4.8 10.9-10.9 10.9z"></path> </g> <g clip-rule="evenodd" fill="#FF6EFF" fill-rule="evenodd"> 	<path d="m328.1 1232.3c10.6 0 19.2 8.6 19.2 19.2 0-10.6 8.6-19.2 19.2-19.2-10.6 0-19.2-8.6-19.2-19.2 0 10.6-8.6 19.2-19.2 19.2z"></path> 	<path d="m405.5 1021.9c5.3 0 9.6 4.3 9.6 9.6 0-5.3 4.3-9.6 9.6-9.6-5.3 0-9.6-4.3-9.6-9.6 0 5.4-4.3 9.6-9.6 9.6z"></path> 	<path d="m371.9 1655.9c5.3 0 9.6 4.3 9.6 9.6 0-5.3 4.3-9.6 9.6-9.6-5.3 0-9.6-4.3-9.6-9.6 0 5.3-4.3 9.6-9.6 9.6z"></path> 	<path d="m332.1 1071.3c5.3 0 9.6 4.3 9.6 9.6 0-5.3 4.3-9.6 9.6-9.6-5.3 0-9.6-4.3-9.6-9.6-0.1 5.4-4.4 9.6-9.6 9.6z"></path> 	<path d="m445.4 1606.8c5.3 0 9.6 4.3 9.6 9.6 0-5.3 4.3-9.6 9.6-9.6-5.3 0-9.6-4.3-9.6-9.6 0 5.3-4.3 9.6-9.6 9.6z"></path> 	<path d="m387 1129.4c5.3 0 9.6 4.3 9.6 9.6 0-5.3 4.3-9.6 9.6-9.6-5.3 0-9.6-4.3-9.6-9.6 0 5.3-4.3 9.6-9.6 9.6z"></path> 	<path d="m468.8 1690.5c5.3 0 9.6 4.3 9.6 9.6 0-5.3 4.3-9.6 9.6-9.6-5.3 0-9.6-4.3-9.6-9.6 0 5.3-4.3 9.6-9.6 9.6z"></path> 	<path d="m557.7 999.8c2.6 0 4.8 2.1 4.8 4.8 0-2.6 2.1-4.8 4.8-4.8-2.6 0-4.8-2.1-4.8-4.8-0.1 2.6-2.2 4.8-4.8 4.8z"></path> 	<path d="m394.4 1280.2c2.6 0 4.8 2.1 4.8 4.8 0-2.6 2.1-4.8 4.8-4.8-2.6 0-4.8-2.1-4.8-4.8-0.1 2.6-2.2 4.8-4.8 4.8z"></path> 	<path d="m328.6 1338.7c2.6 0 4.8 2.1 4.8 4.8 0-2.6 2.1-4.8 4.8-4.8-2.6 0-4.8-2.1-4.8-4.8 0 2.6-2.2 4.8-4.8 4.8z"></path> 	<path d="m438.1 1380.8c2.6 0 4.8 2.1 4.8 4.8 0-2.6 2.1-4.8 4.8-4.8-2.6 0-4.8-2.1-4.8-4.8 0 2.6-2.2 4.8-4.8 4.8z"></path> 	<path d="m471 1478.7c2.6 0 4.8 2.1 4.8 4.8 0-2.6 2.1-4.8 4.8-4.8-2.6 0-4.8-2.1-4.8-4.8 0 2.7-2.1 4.8-4.8 4.8z"></path> </g> <g clip-rule="evenodd" fill-rule="evenodd"> 	 		<linearGradient id="u" x1="2504.8" x2="2761.7" y1="713.06" y2="465" gradientUnits="userSpaceOnUse"> 			<stop stop-color="#8E278F" offset="0"></stop> 			<stop stop-color="#180A3F" offset="1"></stop> 		</linearGradient> 		<path d="m2510 673.5c6.9-6.9 120.6-112.7 190-170.6v34.5c-59.5 69.4-148.5 165-154.8 171.3-9.7 9.7-25.5 9.7-35.2 0-9.7-9.8-9.7-25.5 0-35.2z" fill="url(#u)"></path> 		<linearGradient id="j" x1="2534" x2="2521.2" y1="697.02" y2="685.15" gradientUnits="userSpaceOnUse"> 			<stop stop-color="#99459A" offset="0"></stop> 			<stop stop-color="#F278A4" offset="1"></stop> 		</linearGradient> 		<circle cx="2527.6" cy="691.1" r="14.6" fill="url(#j)"></circle> 	 	 		<linearGradient id="d" x1="2653.7" x2="2712.7" y1="675.38" y2="594.14" gradientUnits="userSpaceOnUse"> 			<stop stop-color="#8E278F" offset="0"></stop> 			<stop stop-color="#180A3F" offset="1"></stop> 		</linearGradient> 		<path d="m2647 660.9c2.1-3 26.9-34.7 53-66.8v37.5c-15.8 24.2-28.8 43.4-30.4 45.6-4.5 6.2-13.2 7.6-19.5 3.1-6.2-4.5-7.6-13.2-3.1-19.4z" fill="url(#d)"></path> 		<linearGradient id="c" x1="2661.5" x2="2655.1" y1="672.09" y2="666.07" gradientUnits="userSpaceOnUse"> 			<stop stop-color="#99459A" offset="0"></stop> 			<stop stop-color="#F278A4" offset="1"></stop> 		</linearGradient> 		<circle cx="2658.3" cy="669.1" r="8.2" fill="url(#c)"></circle> 	 </g> <g clip-rule="evenodd" fill-rule="evenodd"> 	<linearGradient id="b" x1="805.88" x2="750.97" y1="731.34" y2="676.42" gradientUnits="userSpaceOnUse"> 		<stop stop-color="#610E91" offset="0"></stop> 		<stop stop-color="#FA5AB2" offset="1"></stop> 	</linearGradient> 	<path d="m778.6 742.1c21 0 38.1-17.1 38.1-38.1s-17.1-38.1-38.1-38.1-38.1 17.1-38.1 38.1 17.1 38.1 38.1 38.1z" fill="url(#b)"></path> 	<linearGradient id="a" x1="786.66" x2="750.38" y1="714.68" y2="678.41" gradientUnits="userSpaceOnUse"> 		<stop stop-color="#B535CC" offset="0"></stop> 		<stop stop-color="#FF7FA8" offset="1"></stop> 	</linearGradient> 	<path d="m778.6 666c4.3 0 8.5 0.7 12.3 2 5.2 6.5 8.2 14.7 8.2 23.7 0 21-17 38.1-38.1 38.1-4.3 0-8.5-0.7-12.3-2-5.2-6.5-8.2-14.7-8.2-23.7 0-21.1 17.1-38.1 38.1-38.1z" fill="url(#a)"></path> </g> <g transform="translate(28.65 -12.278)" clip-rule="evenodd" fill-rule="evenodd"> 	<linearGradient id="bj" x1="390.08" x2="297.33" y1="1561.9" y2="1469.1" gradientUnits="userSpaceOnUse"> 		<stop stop-color="#81074F" offset="0"></stop> 		<stop stop-color="#FF6577" offset="1"></stop> 	</linearGradient> 	<circle cx="343.2" cy="1515" r="65.7" fill="url(#bj)"></circle> 	<linearGradient id="bi" x1="374.76" x2="295.92" y1="1548.3" y2="1469.4" gradientUnits="userSpaceOnUse"> 		<stop stop-color="#AC145E" offset="0"></stop> 		<stop stop-color="#FF8EB5" offset="1"></stop> 	</linearGradient> 	<path d="m357.1 1454.2c31.5 9.5 53 42.7 29.2 63.6-24.7 21.7-30.1 49-63.4 50.3-32.8 1.4-49.3-42.6-39.9-74.1 9.4-31.4 42.6-49.3 74.1-39.8z" fill="url(#bi)"></path> 	<linearGradient id="bh" x1="353.74" x2="301.03" y1="1525.2" y2="1472.5" gradientUnits="userSpaceOnUse"> 		<stop stop-color="#F5577F" offset="0"></stop> 		<stop stop-color="#FFACC9" offset="1"></stop> 	</linearGradient> 	<path d="m347.6 1454.7c34.2 7 45.1 33.9 27.1 39.7-41.2 13.1-51.9 56.5-69.2 54.5-25.7-3.1-27.5-45.4-15.9-66.3 10.5-18.9 36.8-32.2 58-27.9z" fill="url(#bh)"></path> 	<linearGradient id="bg" x1="340.49" x2="340.49" y1="1578.6" y2="1462.3" gradientUnits="userSpaceOnUse"> 		<stop stop-color="#981655" offset="0"></stop> 		<stop stop-color="#FFB98E" offset="1"></stop> 	</linearGradient> 	<path d="m293.3 1488.2c-0.9-0.6-3.4-1.3-4.5-1.1-2.8 0.4-5.4 4.9-6.9 7.2-3.1 4.9-6.6 11.8-4.4 17.2 2.1 5 7.4 7.9 12.9 8.3 3.1 0.2 7.4-1.9 7.9-7 0.3-3.5-2.4-6.7-3.3-10.1-1-4.2 2-12.1-1.7-14.5zm79.6 81.5c-0.1 0.8-3 4.8-4.1 5-2.3 0.3-5.3 1.7-7.4 0.5-2-1.1-3.3-3.1-3.1-4.6 0.1-0.8 3.6-4.3 4.9-5.2 2.8-1.9 10 1.8 9.7 4.3zm28.5-46.1c-4.4-1.1-7.6 3.3-9.7 8.3-2.2 4.9-8.6 10.1-7 15.5 1.5 5 3 8.1 6.8 7.8 9.3-0.7 13.1-20.7 12.7-22.7-0.8-4.3 0.2-8.2-2.8-8.9zm-41.8 4c-2.8-0.3-19.5 3.9-21 6.2-3.1 4.9-10.4 10.5-8.2 15.9 2.1 5 5.7 5.7 11.1 6 3.1 0.2 10.1-5.3 14.6-7.8 3.1-1.7 7.2-4.1 9.3-6.9 3.3-3.9-0.9-12.9-5.8-13.4zm8.3-30.4c-0.8-0.1-5.4 1.8-5.8 2.8-0.9 2.2-2.9 4.7-2.3 7.1 0.6 2.2 2.2 3.9 3.7 4.1 0.8 0.1 5-2.4 6.3-3.5 2.5-2.3 0.5-10.2-1.9-10.5zm12-28.2c4.9 0.4 9.5 4.2 12 13.9 0.9 3.4 2.8 7.4 2.5 11-0.4 5.1-7.2 4.8-10.3 4.6-5.4-0.4-5.7-3.3-7.8-8.4-2.2-5.4-7-13.2-3.8-18.2 1.5-2.3 4.6-3.2 7.4-2.9zm-68.6-4.5c-0.8-0.1-5.4 1.8-5.8 2.8-0.9 2.2-2.9 4.7-2.3 7.1 0.6 2.2 2.2 3.9 3.7 4.1 0.8 0.1 6.7-0.8 7.9-1.9 2.5-2.3-1-11.7-3.5-12.1zm9.5 88.5c-0.8-0.1-5.4 1.8-5.8 2.8-0.9 2.2-2.9 4.7-2.3 7.1 0.6 2.2 2.2 3.9 3.7 4.1 0.8 0.1 6.7-0.8 7.9-1.9 2.5-2.2-1-11.7-3.5-12.1z" fill="url(#bg)"></path> 	<linearGradient id="bf" x1="340.27" x2="340.27" y1="1577.9" y2="1461" gradientUnits="userSpaceOnUse"> 		<stop stop-color="#F557A6" offset="0"></stop> 		<stop stop-color="#FEFFAC" offset="1"></stop> 	</linearGradient> 	<path d="m290 1487.7c-3.2-2.1-8.5 1.2-10.5 4.4-3.1 4.9-5.5 11.8-3.3 17.2 2.1 5 8.5 8.2 13.9 8.5 3.1 0.2 5.3-4.2 5.7-7.3 0.5-3.5-2.4-6.7-3.3-10.1-1-4.1 1.2-10.4-2.5-12.7zm81.7 87.8c-2.3 0.3-7.2 1.4-9.4 0.2-2-1.1-2.3-1.8-2.1-3.3 0.1-0.8 4-5 4.5-5.7 0.9-1.4 3.7-0.2 6.1 1 5.8 2.7 4.8 7.3 0.9 7.8zm31-51.5c-2.2-2.1-6.1 3.2-7.5 6.4-2.2 4.9-9.1 11-7.6 16.4 1.5 5 1.4 8.3 5.2 8.7 2.1 0.2 7.1-5.1 8.5-7.4 6.3-10.2 3.4-22.3 1.4-24.1zm-49.1 3.5c-3.4 1.7-12.3 1.9-14.3 5.1-3.1 4.9-12.1 9.6-9.9 15 2.1 5 4.3 6 9.8 6.3 3.1 0.2 15.9-8.4 18.9-9.1 5.6-1.3 8.9-5.5 7-11.5-1.5-4.1-3.2-10-11.5-5.8zm-41.9 25.5c-0.9 2.2 0.1 6.6 0.7 9 0.6 2.2 1.2 2.7 2.7 2.8 0.8 0.1 7.1-1.2 7.9-1.5 1.6-0.6-0.2-5-0.8-7.7-1.2-6.2-9.1-6.3-10.5-2.6zm50.3-56c-0.9 2.2-3.1 6.6-2.5 9 0.6 2.2 1.2 2.7 2.7 2.8 0.8 0.1 5.8-2.7 6.6-3 1.6-0.6 1-3.5 0.5-6.2-1.2-6.1-5.9-6.3-7.3-2.6zm21.5-28.2c3.7 2.4 7 5.5 8.1 9.7 0.9 3.4 3.2 9.7 2.7 13.2-0.4 3-7.4 4.8-10.5 4.6-5.4-0.4-5.5-6.3-7.6-11.3-2.2-5.4-6.2-9.5-3.1-14.4 2.2-3.2 7.2-3.9 10.4-1.8zm-81.3-4.4c-0.9 2.2 0.1 6.6 0.7 9 0.6 2.2 1.2 2.7 2.7 2.8 0.8 0.1 7.1-1.2 7.9-1.5 1.6-0.6-0.2-5-0.8-7.7-1.2-6.2-9.1-6.3-10.5-2.6z" fill="url(#bf)"></path> </g> <g transform="translate(155.53 -61.392)" clip-rule="evenodd" fill-rule="evenodd"> 	 		<linearGradient id="be" x1="400.28" x2="214.31" y1="912.05" y2="761.47" gradientUnits="userSpaceOnUse"> 			<stop stop-color="#450F87" offset="0"></stop> 			<stop stop-color="#DB295F" offset="1"></stop> 		</linearGradient> 		<path d="m307.9 954.6c64.6 0 117.3-52.7 117.3-117.3s-52.7-117.3-117.3-117.3-117.3 52.7-117.3 117.3 52.7 117.3 117.3 117.3z" fill="url(#be)"></path> 		<linearGradient id="bd" x1="401.44" x2="227.15" y1="924.63" y2="750.34" gradientUnits="userSpaceOnUse"> 			<stop stop-color="#B5148F" offset="0"></stop> 			<stop stop-color="#F5BB6E" offset="1"></stop> 		</linearGradient> 		<path d="m355.8 730.1c7.5 3.3 14.5 7.4 21 12.2 0 3.5 0.1 7 0.8 10.1 1 4.4 1.9 8.8 3.7 13 2.8 6.6 7.2 12.4 9.8 19 3.4 8.7 7.4 17.6 7.9 26.9 0.3 5.7-5.8 10.5-5.6 16.2 0.4 13.2 8.3 25.8 7.4 39-0.7 10.7-5.1 21.6-12.1 29.7-6.5 7.5-19.3 7.1-26 14.4-4 4.3 0.9 13.1-3.2 17.2-6.9 6.7-17.5 8-26.4 11.6-6.7 2.7-14.3 3.5-20.4 7.4-3.3 2.2-6.5 4.8-9.5 7.6-13.1-0.5-25.6-3.2-37.2-7.6 2.1-0.4 4.1-0.9 5.8-1.4 7.4-2.2 15.7 0.7 23.2-1.4 11.4-3.1 23.3-6.6 32.5-13.9 8-6.4 13.7-15.8 17-25.5 3.8-11.2 0.2-24.1 3.9-35.3 3.2-9.6 14.1-15.7 16.2-25.5 2.5-11.4-4.5-23.2-3.2-34.8 1-9.1 11.5-16.6 9.7-25.5-3.5-17.7-7.2-37.1-15.3-53.4zm-159.2 144.3c8.7-0.8 17.4-1.9 26-1.4 11.9 0.7 23.6 9 35.3 6.5 14.4-3.1 26.1-13.7 38-22.3 9.5-6.8 21.4-12.9 26-23.7 5.6-13.1 0.3-28.6 2.3-42.7 1-6.9 9.6-13.7 6.5-20-7.2-14.4-26-20.3-33.9-34.3-2.3-4.1-4.4-10.3-4.4-15.7-5.6 0.7-11.2 1.9-16.5 3.4 6.3 8.6 15.6 16.9 18.2 26.7 1.9 7.1-5.8 14-6 21.3-0.3 11.1 7.7 22.3 4.6 32.9-3.3 11.8-11.7 23.1-22.3 29.2-11.5 6.7-27.3 1-39.4 6.5-5.7 2.6-4.3 13.8-10.2 15.8-8.9 3-18.6 2.5-28.1 2.3 1 5.5 2.3 10.6 3.9 15.5zm78.8-110.2c2.8-0.7 4-5.1 2.8-9.8s-4.4-8-7.2-7.3-4 5.1-2.8 9.8c1.3 4.7 4.5 8 7.2 7.3zm133.7 59.8c1.8 0.7 2.3 3.8 1.1 6.9s-3.7 5.1-5.5 4.4-2.3-3.8-1.1-6.9 3.6-5.1 5.5-4.4zm-88.1 82.3c-2.6-3.6-9.8-2.9-16 1.6s-9.1 11.1-6.5 14.7 9.8 2.9 16-1.6 9.1-11.1 6.5-14.7zm-47.1 12.8c-0.3-2.8-4.4-4.8-9.3-4.3s-8.6 3.1-8.3 6c0.3 2.8 4.4 4.8 9.3 4.3s8.6-3.2 8.3-6zm89.6-29.1c-1.8-0.7-4.3 1.3-5.5 4.4s-0.7 6.2 1.1 6.9 4.3-1.3 5.5-4.4 0.7-6.2-1.1-6.9zm24.4-26.8c-3.9-1.5-9.3 2.7-11.9 9.5s-1.5 13.5 2.4 15 9.3-2.7 11.9-9.5 1.6-13.5-2.4-15zm-73.3-51.1c-3.9-1.5-9.3 2.7-11.9 9.5s-1.5 13.5 2.4 15 9.3-2.7 11.9-9.5 1.6-13.5-2.4-15zm-44.3 45.8c-3.4 0-6.1 2.3-6.1 5.2s2.7 5.2 6.1 5.2 6.1-2.3 6.1-5.2-2.7-5.2-6.1-5.2zm-24.7-5.4c5 0 9 3.4 9 7.7 0 4.2-4.1 7.7-9 7.7-5 0-9-3.4-9-7.7 0-4.2 4-7.7 9-7.7z" fill="url(#bd)"></path> 		<linearGradient id="bc" x1="394.42" x2="220.13" y1="931.65" y2="757.36" gradientUnits="userSpaceOnUse"> 			<stop stop-color="#B5148F" offset="0"></stop> 			<stop stop-color="#F5BB6E" offset="1"></stop> 		</linearGradient> 		<path d="m307.9 720c13.8 0 27 2.4 39.2 6.7 24.3 21.5 39.6 52.9 39.6 87.9 0 64.8-52.5 117.3-117.3 117.3-13.8 0-27-2.4-39.2-6.7-24.3-21.5-39.6-52.9-39.6-87.9 0-64.8 52.5-117.3 117.3-117.3z" fill="url(#bc)"></path> 		<linearGradient id="bb" x1="394.71" x2="224.55" y1="923.63" y2="753.47" gradientUnits="userSpaceOnUse"> 			<stop stop-color="#E34B8F" offset="0"></stop> 			<stop stop-color="#FFD78C" offset="1"></stop> 		</linearGradient> 		<path d="m360.1 740.2c16.6 20.2 26.6 46.1 26.6 74.4 0 36.2-16.4 68.6-42.2 90.1 3.8-11.2 0.2-24.1 3.9-35.3 3.2-9.6 14.1-15.7 16.2-25.5 2.5-11.4-4.5-23.2-3.2-34.8 1-9.1 11.5-16.6 9.7-25.5-2.8-14.3-5.7-29.6-11-43.4zm-163.5 134.2c-1.7-4.9-3-10-4-15.3 9.6 0.2 19.2 0.6 28.1-2.3 5.9-2 4.5-13.2 10.2-15.8 12.2-5.5 27.9 0.2 39.4-6.5 10.6-6.1 18.9-17.4 22.3-29.2 3-10.7-4.9-21.9-4.6-32.9 0.2-7.4 7.9-14.2 6-21.3-2.6-9.8-11.9-18.1-18.2-26.7 5.4-1.5 10.9-2.7 16.5-3.4 0 5.4 2.1 11.5 4.4 15.7 7.9 14 26.6 20 33.9 34.3 3.1 6.2-5.5 13-6.5 20-2 14.1 3.3 29.6-2.3 42.7-4.6 10.8-16.5 16.8-26 23.7-11.9 8.6-23.7 19.2-38 22.3-11.7 2.5-23.3-5.8-35.3-6.5-8.5-0.6-17.2 0.4-25.9 1.2zm78.8-110.2c2.8-0.7 4-5.1 2.8-9.8s-4.4-8-7.2-7.3-4 5.1-2.8 9.8c1.3 4.7 4.5 8 7.2 7.3zm45.6 142.1c2.6 3.6-0.3 10.2-6.5 14.7s-13.3 5.2-16 1.6c-2.6-3.6 0.3-10.2 6.5-14.7s13.4-5.2 16-1.6zm-47.1 12.8c0.3 2.8-3.5 5.5-8.3 6-4.9 0.5-9-1.5-9.3-4.3s3.5-5.5 8.3-6c4.9-0.5 9.1 1.5 9.3 4.3zm40.7-107c-3.9-1.5-9.3 2.7-11.9 9.5s-1.5 13.5 2.4 15 9.3-2.7 11.9-9.5 1.6-13.5-2.4-15zm-44.3 45.8c-3.4 0-6.1 2.3-6.1 5.2s2.7 5.2 6.1 5.2 6.1-2.3 6.1-5.2-2.7-5.2-6.1-5.2zm-24.7-5.4c-5 0-9 3.4-9 7.7 0 4.2 4.1 7.7 9 7.7 5 0 9-3.4 9-7.7 0.1-4.2-4-7.7-9-7.7z" fill="url(#bb)"></path> 		<linearGradient id="ba" x1="387.32" x2="217.76" y1="933.12" y2="763.56" gradientUnits="userSpaceOnUse"> 			<stop stop-color="#E34B8F" offset="0"></stop> 			<stop stop-color="#FFD78C" offset="1"></stop> 		</linearGradient> 		<path d="m307.9 720c1.9 0 3.9 0 5.8 0.1 17.8 18.5 28.7 43.6 28.7 71.2 0 56.7-46 102.7-102.7 102.7-13.5 0-26.4-2.6-38.2-7.4-7-15-10.9-31.8-10.9-49.4 0-64.7 52.5-117.2 117.3-117.2z" fill="url(#ba)"></path> 		<linearGradient id="az" x1="382.78" x2="204.33" y1="935.93" y2="757.48" gradientUnits="userSpaceOnUse"> 			<stop stop-color="#F55AA8" offset="0"></stop> 			<stop stop-color="#FAFFB5" offset="1"></stop> 		</linearGradient> 		<path d="m196.6 874.4c-1.7-4.9-3-10-4-15.3 9.6 0.2 19.2 0.6 28.1-2.3 5.9-2 4.5-13.2 10.2-15.8 12.2-5.5 27.9 0.2 39.4-6.5 10.6-6.1 18.9-17.4 22.3-29.2 3-10.7-4.9-21.9-4.6-32.9 0.2-7.4 7.9-14.2 6-21.3-2.6-9.8-11.9-18.1-18.2-26.7 5.4-1.5 10.9-2.7 16.5-3.4 0 5.4 2.1 11.5 4.4 15.7 7.9 14 26.6 20 33.9 34.3 3.1 6.2-5.5 13-6.5 20-2 14.1 3.3 29.6-2.3 42.7-4.6 10.8-16.5 16.8-26 23.7-11.9 8.6-23.7 19.2-38 22.3-11.7 2.5-23.3-5.8-35.3-6.5-8.5-0.6-17.2 0.4-25.9 1.2zm61.4-57.9c-3.8 0-6.8 2.8-6.8 6.3s3.1 6.3 6.8 6.3c3.8 0 6.8-2.8 6.8-6.3 0.1-3.5-3-6.3-6.8-6.3zm-43.2-29.3c-1.3-1-3.5-0.3-4.8 1.5s-1.3 4 0.1 5c1.3 1 3.5 0.3 4.8-1.5 1.2-1.8 1.2-4-0.1-5zm16.9-23.9c-2.4-1.7-6.2-0.5-8.5 2.7s-2.2 7.2 0.1 9c2.4 1.7 6.2 0.5 8.5-2.7 2.4-3.3 2.3-7.3-0.1-9zm43.7 0.9c2.8-0.7 4-5.1 2.8-9.8s-4.4-8-7.2-7.3-4 5.1-2.8 9.8c1.3 4.7 4.5 8 7.2 7.3zm39.2 47.9c-3.9-1.5-9.3 2.7-11.9 9.5s-1.5 13.5 2.4 15 9.3-2.7 11.9-9.5 1.6-13.5-2.4-15zm-44.3 45.8c-3.4 0-6.1 2.3-6.1 5.2s2.7 5.2 6.1 5.2 6.1-2.3 6.1-5.2-2.7-5.2-6.1-5.2zm-24.7-5.4c-5 0-9 3.4-9 7.7 0 4.2 4.1 7.7 9 7.7 5 0 9-3.4 9-7.7 0.1-4.2-4-7.7-9-7.7z" fill="url(#az)"></path> 	 	<linearGradient id="ay" x1="394.54" x2="216.09" y1="924.18" y2="745.73" gradientUnits="userSpaceOnUse"> 		<stop stop-color="#F55AA8" offset="0"></stop> 		<stop stop-color="#FAFFB5" offset="1"></stop> 	</linearGradient> 	<path d="m382.1 709.1c37.6-25.7 66.2-37 75.9-27.4 17.9 17.9-36.1 100.8-120.6 185.3-84.4 84.5-167.4 138.5-185.3 120.7-9.7-9.7 1.6-38.3 27.4-75.9-10.8 21.6-13.6 38-6.3 45.4 17.9 17.9 89.3-24.6 159.5-94.8s112.7-141.6 94.8-159.5c-7.3-7.4-23.7-4.5-45.4 6.2z" fill="url(#ay)"></path> </g> <g transform="translate(8.1857 -81.857)" clip-rule="evenodd" fill-rule="evenodd"> 	 		<linearGradient id="ax" x1="2612.7" x2="2397.1" y1="1715.4" y2="1499.8" gradientUnits="userSpaceOnUse"> 			<stop stop-color="#210836" offset="0"></stop> 			<stop stop-color="#C21DAC" offset="1"></stop> 		</linearGradient> 		<circle cx="2502.3" cy="1605" r="152.8" fill="url(#ax)"></circle> 		<linearGradient id="aw" x1="2574.9" x2="2394.6" y1="1684.4" y2="1497.8" gradientUnits="userSpaceOnUse"> 			<stop stop-color="#40134F" offset="0"></stop> 			<stop stop-color="#C720D9" offset="1"></stop> 		</linearGradient> 		<path d="m2534.6 1463.8c73.2 22 123.3 99.2 67.8 147.9-57.4 50.4-70 113.8-147.3 117-76.3 3.1-114.7-99.1-92.7-172.3 22-73.1 99.1-114.6 172.2-92.6z" fill="url(#aw)"></path> 		<linearGradient id="av" x1="2524.7" x2="2397.7" y1="1628.3" y2="1496.7" gradientUnits="userSpaceOnUse"> 			<stop stop-color="#911B91" offset="0"></stop> 			<stop stop-color="#CC2DDF" offset="1"></stop> 		</linearGradient> 		<path d="m2512.5 1465c79.5 16.3 104.7 78.9 62.9 92.2-95.7 30.4-120.7 131.4-160.9 126.6-59.7-7.1-64-105.6-36.9-154.1 24.5-43.9 85.7-74.8 134.9-64.7z" fill="url(#av)"></path> 	 	<linearGradient id="au" x1="2391.7" x2="2348.2" y1="1616.5" y2="1573" gradientUnits="userSpaceOnUse"> 		<stop stop-color="#40134F" offset="0"></stop> 		<stop stop-color="#C720D9" offset="1"></stop> 	</linearGradient> 	<path d="m2378.7 1559.4c-10.6-12.7-33.4 10.9-33.7 36.4-0.2 16 19.9 48.4 30.8 36.7 16.5-17.9 18.6-54.4 2.9-73.1z" fill="url(#au)"></path> 	<linearGradient id="at" x1="2354.9" x2="2354.9" y1="1607.5" y2="1581.4" gradientUnits="userSpaceOnUse"> 		<stop stop-color="#210836" offset="0"></stop> 		<stop stop-color="#C21DAC" offset="1"></stop> 	</linearGradient> 	<path d="m2356.8 1581.7c-4-1.9-7.4 3.8-7.5 12.8-0.1 5.6 1.1 14.4 6.5 12.9 6.1-1.9 6.4-23.2 1-25.7z" fill="url(#at)"></path> 	<linearGradient id="as" x1="2357.7" x2="2357.7" y1="1615.2" y2="1585" gradientUnits="userSpaceOnUse"> 		<stop stop-color="#F557A6" offset="0"></stop> 		<stop stop-color="#FEFFAC" offset="1"></stop> 	</linearGradient> 	<path d="m2356 1607.2c4.6-1.9 5.7-15.3 3.3-21.9-2.6 1.3-4.5 6.2-4.5 12.7 0 2.8 0.3 6.5 1.2 9.2z" fill="url(#as)"></path> 	<linearGradient id="ar" x1="2580.2" x2="2620.1" y1="1534.6" y2="1494.7" gradientUnits="userSpaceOnUse"> 		<stop stop-color="#40134F" offset="0"></stop> 		<stop stop-color="#C720D9" offset="1"></stop> 	</linearGradient> 	<path d="m2618.3 1493c-15.4-14.7-54.9-15.6-54.1 9.9 0.8 23.6 35.3 57.8 57.2 46 12.7-6.9 15.9-37.8-3.1-55.9z" fill="url(#ar)"></path> 	<linearGradient id="aq" x1="2609.6" x2="2609.6" y1="1518.6" y2="1492.4" gradientUnits="userSpaceOnUse"> 		<stop stop-color="#210836" offset="0"></stop> 		<stop stop-color="#C21DAC" offset="1"></stop> 	</linearGradient> 	<path d="m2610.2 1493.1c-4.5-2.3-12.9 0.8-13 11-0.1 6.4 15.1 16 21.3 14.2 7-2 3.7-19-8.3-25.2z" fill="url(#aq)"></path> 	<linearGradient id="ap" x1="2607.2" x2="2607.2" y1="1530" y2="1490.6" gradientUnits="userSpaceOnUse"> 		<stop stop-color="#F557A6" offset="0"></stop> 		<stop stop-color="#FEFFAC" offset="1"></stop> 	</linearGradient> 	<path d="m2617.1 1518.6c1.1-6-3.1-16.2-11.8-20.7-1.9-1-4.4-1-6.8 0-0.8 1.7-1.3 3.7-1.4 6.2 0 6 13.2 14.8 20 14.5z" fill="url(#ap)"></path> 	 		<linearGradient id="ao" x1="2466.5" x2="2466.5" y1="1695.1" y2="1769.8" gradientUnits="userSpaceOnUse"> 			<stop stop-color="#40134F" offset="0"></stop> 			<stop stop-color="#C720D9" offset="1"></stop> 		</linearGradient> 		<path d="m2413.3 1702c-23.8 11.7 4.3 56.3 43.9 66.5 24.8 6.4 83.2-12.6 69-34-21.6-32.7-77.8-49.8-112.9-32.5z" fill="url(#ao)"></path> 		<linearGradient id="an" x1="2465" x2="2465" y1="1764.1" y2="1739.8" gradientUnits="userSpaceOnUse"> 			<stop stop-color="#210836" offset="0"></stop> 			<stop stop-color="#C21DAC" offset="1"></stop> 		</linearGradient> 		<path d="m2464.1 1740c-5.1-0.2-25.6-1.3-25.3 9 0.3 12.3 21 15.3 27.4 15.2 10.9-0.2 25.9-1.9 25-12.7-0.7-9-14-10.9-27.1-11.5z" fill="url(#an)"></path> 		<linearGradient id="am" x1="2465.6" x2="2465.6" y1="1756.1" y2="1739.6" gradientUnits="userSpaceOnUse"> 			<stop stop-color="#F557A6" offset="0"></stop> 			<stop stop-color="#FEFFAC" offset="1"></stop> 		</linearGradient> 		<path d="m2464.1 1740c-4.2-0.2-18.6-0.9-23.6 4.4 3.7 9.4 20.9 11.8 26.7 11.7 8.5-0.1 19.6-1.3 23.6-6.9-2.6-7-14.8-8.7-26.7-9.2z" fill="url(#am)"></path> 	 	 		<linearGradient id="al" x1="2580.7" x2="2580.7" y1="1687.3" y2="1736.6" gradientUnits="userSpaceOnUse"> 			<stop stop-color="#40134F" offset="0"></stop> 			<stop stop-color="#C720D9" offset="1"></stop> 		</linearGradient> 		<path d="m2553.2 1725.4c-2.4 13.8 25.3 15.5 41.8 1.8 10.4-8.6 20.3-39.3 6.8-39.9-20.5-0.8-45.2 17.8-48.6 38.1z" fill="url(#al)"></path> 		<linearGradient id="ak" x1="2590" x2="2590" y1="1729.9" y2="1706.8" gradientUnits="userSpaceOnUse"> 			<stop stop-color="#210836" offset="0"></stop> 			<stop stop-color="#C21DAC" offset="1"></stop> 		</linearGradient> 		<path d="m2585 1715.5c-1.7 2.1-8.4 10.5-4 13.5 5.3 3.6 13-4.2 14.9-7 3.3-4.7 7.2-11.6 2.3-14.6-4-2.4-8.9 2.7-13.2 8.1z" fill="url(#ak)"></path> 		<linearGradient id="aj" x1="2588.5" x2="2588.5" y1="1726.6" y2="1705.4" gradientUnits="userSpaceOnUse"> 			<stop stop-color="#F557A6" offset="0"></stop> 			<stop stop-color="#FEFFAC" offset="1"></stop> 		</linearGradient> 		<path d="m2585 1715.5c-1.4 1.7-6.1 7.7-5.4 11.4 5.1 1.3 11.5-5.3 13.2-7.8 2.6-3.7 5.5-8.7 4.3-12.2-3.8-1-8.2 3.7-12.1 8.6z" fill="url(#aj)"></path> 	 	 		<linearGradient id="ai" x1="2528.6" x2="2528.6" y1="1478.2" y2="1447.4" gradientUnits="userSpaceOnUse"> 			<stop stop-color="#40134F" offset="0"></stop> 			<stop stop-color="#C720D9" offset="1"></stop> 		</linearGradient> 		<path d="m2552.7 1472.8c9.3-6.5-5.4-23.5-22.8-25.3-10.9-1.1-34.3 10.7-27 18.8 11.3 12.4 36.1 16 49.8 6.5z" fill="url(#ai)"></path> 		<linearGradient id="ah" x1="2527.7" x2="2527.7" y1="1460.3" y2="1449.8" gradientUnits="userSpaceOnUse"> 			<stop stop-color="#210836" offset="0"></stop> 			<stop stop-color="#C21DAC" offset="1"></stop> 		</linearGradient> 		<path d="m2528.8 1460c2.2-0.2 10.9-1.1 10.1-5.4-0.9-5.2-9.8-5.1-12.6-4.7-4.6 0.8-10.8 2.5-9.8 7 1 3.8 6.8 3.7 12.3 3.1z" fill="url(#ah)"></path> 		<linearGradient id="ag" x1="2527.7" x2="2527.7" y1="1460.5" y2="1453.3" gradientUnits="userSpaceOnUse"> 			<stop stop-color="#F557A6" offset="0"></stop> 			<stop stop-color="#FEFFAC" offset="1"></stop> 		</linearGradient> 		<path d="m2528.8 1460c1.8-0.2 7.9-0.8 9.7-3.4-2.2-3.7-9.6-3.6-12-3.2-3.6 0.6-8.2 1.8-9.5 4.4 1.5 2.8 6.8 2.7 11.8 2.2z" fill="url(#ag)"></path> 	 	 		<linearGradient id="ae" x1="2523.7" x2="2523.7" y1="1627.3" y2="1701.6" gradientUnits="userSpaceOnUse"> 			<stop stop-color="#40134F" offset="0"></stop> 			<stop stop-color="#C720D9" offset="1"></stop> 		</linearGradient> 		<path d="m2492.2 1638.4c-21 16.2-10.6 60.9 30.2 63.1 25.6 1.4 45.1-20.2 43.3-45.8-1.6-22.5-42.5-41.2-73.5-17.3z" fill="url(#ae)"></path> 		<linearGradient id="ad" x1="2526.1" x2="2526.1" y1="1695.3" y2="1664.7" gradientUnits="userSpaceOnUse"> 			<stop stop-color="#210836" offset="0"></stop> 			<stop stop-color="#C21DAC" offset="1"></stop> 		</linearGradient> 		<path d="m2522.6 1665.7c-5.1 0.7-25.4 3.5-22.6 15.9 3.3 14.8 24.3 14.5 30.6 13.1 10.6-2.4 24.9-7.5 21.4-20.4-2.9-10.8-16.5-10.5-29.4-8.6z" fill="url(#ad)"></path> 		<linearGradient id="ac" x1="2525.8" x2="2525.8" y1="1685.6" y2="1664.2" gradientUnits="userSpaceOnUse"> 			<stop stop-color="#F557A6" offset="0"></stop> 			<stop stop-color="#FEFFAC" offset="1"></stop> 		</linearGradient> 		<path d="m2522.6 1665.7c-4.1 0.6-18.5 2.5-22 10.2 6 11.1 23.5 10.7 29.2 9.5 8.3-1.9 18.9-5.4 21.4-13.3-4.5-8.4-16.8-8.1-28.6-6.4z" fill="url(#ac)"></path> 	 	 		<linearGradient id="ab" x1="2458.1" x2="2405.5" y1="1566.8" y2="1514.2" gradientUnits="userSpaceOnUse"> 			<stop stop-color="#40134F" offset="0"></stop> 			<stop stop-color="#C720D9" offset="1"></stop> 		</linearGradient> 		<path d="m2430.6 1581.6c-26 5.2-52.9-32-27.8-64.2 15.8-20.2 44.8-20.8 63-2.6 15.9 16 3.2 59.1-35.2 66.8z" fill="url(#ab)"></path> 		<linearGradient id="aa" x1="2422.5" x2="2422.5" y1="1551.2" y2="1507.3" gradientUnits="userSpaceOnUse"> 			<stop stop-color="#210836" offset="0"></stop> 			<stop stop-color="#C21DAC" offset="1"></stop> 		</linearGradient> 		<path d="m2429.9 1540.8c-3.9 3.4-19.3 16.9-26.9 6.6-9-12.3 5.1-27.9 10.2-31.7 8.8-6.5 22-13.9 29.5-2.7 6.3 9.2-2.9 19.3-12.8 27.8z" fill="url(#aa)"></path> 		<linearGradient id="z" x1="2425.7" x2="2425.7" y1="1552.2" y2="1514.6" gradientUnits="userSpaceOnUse"> 			<stop stop-color="#F557A6" offset="0"></stop> 			<stop stop-color="#FEFFAC" offset="1"></stop> 		</linearGradient> 		<path d="m2429.9 1540.8c-3.2 2.7-14.1 12.3-22.2 9.9-4.4-11.8 7.4-24.8 12-28.2 6.9-5.1 16.5-10.7 24.1-7.3 3.5 8.7-4.9 17.8-13.9 25.6z" fill="url(#z)"></path> 	 	 		<linearGradient id="y" x1="2632.1" x2="2664.9" y1="1604.6" y2="1604.6" gradientUnits="userSpaceOnUse"> 			<stop stop-color="#40134F" offset="0"></stop> 			<stop stop-color="#C720D9" offset="1"></stop> 		</linearGradient> 		<path d="m2639.9 1625.8c7.8 7.5 24.7-6.4 25-21.4 0.2-9.4-14.5-28.6-22.6-21.7-12.3 10.5-13.9 32.1-2.4 43.1z" fill="url(#y)"></path> 		<linearGradient id="x" x1="2656.5" x2="2656.5" y1="1612.8" y2="1593.6" gradientUnits="userSpaceOnUse"> 			<stop stop-color="#210836" offset="0"></stop> 			<stop stop-color="#C21DAC" offset="1"></stop> 		</linearGradient> 		<path d="m2651.4 1604.4c0.4 1.8 2.2 9.3 6.7 8.3 5.4-1.2 4.6-8.8 3.8-11.1-1.3-3.9-3.6-9.1-8.4-7.8-3.8 1-3.2 5.9-2.1 10.6z" fill="url(#x)"></path> 		<linearGradient id="w" x1="2654.7" x2="2654.7" y1="1612.4" y2="1593.7" gradientUnits="userSpaceOnUse"> 			<stop stop-color="#F557A6" offset="0"></stop> 			<stop stop-color="#FEFFAC" offset="1"></stop> 		</linearGradient> 		<path d="m2651.4 1604.4c0.4 1.5 1.6 6.7 4.5 8.1 3.8-2.1 3-8.5 2.4-10.5-1-3-2.7-6.9-5.6-7.8-2.9 1.4-2.3 5.9-1.3 10.2z" fill="url(#w)"></path> 	 </g> <g clip-rule="evenodd" fill-rule="evenodd"> 	 		<linearGradient id="v" x1="1196.2" x2="1196.2" y1="374.88" y2="566.78" gradientUnits="userSpaceOnUse"> 			<stop stop-color="#230070" offset="0"></stop> 			<stop stop-color="#8FE3FF" offset="1"></stop> 		</linearGradient> 		<path d="m637.1 375c30.6 23.9 62.8 45.8 96.4 65.7 3.6 14.1 7.3 25 15.2 34.6 38.3 46.3 126.7 74.4 163.8 74.9 15.3 0.2 30.9-7.1 44.9-14.9 76.1 20.6 156.1 31.6 238.7 31.6 107.1 0 209.8-18.5 305.3-52.5 11.8-4.2 25.3 5.7 36.4 4.9 20.4-1.4 42.3-9.9 57-25.5 3.5-3.8 13-25.2 17.6-27.5 27.6-14.2 99.1-53.7 142.9-91.3h-1118.2z" fill="url(#v)"></path> 		<linearGradient id="t" x1="1212.6" x2="1212.6" y1="376.04" y2="520.55" gradientUnits="userSpaceOnUse"> 			<stop stop-color="#200066" offset="0"></stop> 			<stop stop-color="#527CB3" offset="1"></stop> 		</linearGradient> 		<path d="m702.4 375c13.8 10.7 33.1 39.3 52.8 35.2 99.7-20.7 112.4 19.3 174 36.5 41 11.5 49.1 37.4 84.4 23.7 21.7-6.6 64-11 88.2-7.1 47.6 7.7 72.1 28.8 85.1 48.6 59.1 28.2 123.2-9.7 181.1 6.2 34 9.3 76.6 3.3 118.8-9 30.9-9.1-5-31.7 66.2-58 53-19.6 117.1-39.9 169.7-76.3h-1020.3z" fill="url(#t)"></path> 	 	 		 			<path d="m767.7 472.8c32 38.7 108.2 64.9 139.2 65.3 28.8 0.4 21.1-34.1-43.6-67.5-34.1-17.7-133.9-44.1-95.6 2.2z" fill="#8FFFF2"></path> 			<linearGradient id="s" x1="837.65" x2="837.65" y1="441.42" y2="537.1" gradientUnits="userSpaceOnUse"> 				<stop stop-color="#200066" offset="0"></stop> 				<stop stop-color="#527CB3" offset="1"></stop> 			</linearGradient> 			<path d="m766.3 475.6c32 38.7 105.9 62.2 136.9 62.6 28.8 0.4 17.2-27.2-47.4-60.6-34.2-17.7-127.8-48.3-89.5-2z" fill="url(#s)"></path> 		 		 			<path d="m1036.6 519.7c28.5 19.6 84 22.5 104.5 16.9 19.2-5.2 7.5-26.6-41.6-36.5-26-5.2-97-3.8-62.9 19.6z" fill="#8FFFF2"></path> 			<linearGradient id="r" x1="1087" x2="1087" y1="501.08" y2="540.49" gradientUnits="userSpaceOnUse"> 				<stop stop-color="#200066" offset="0"></stop> 				<stop stop-color="#527CB3" offset="1"></stop> 			</linearGradient> 			<path d="m1036.2 521.8c28.5 19.6 81.9 21.2 102.5 15.5 19.2-5.2 6.3-21.3-42.9-31.2-26-5.1-93.7-7.7-59.6 15.7z" fill="url(#r)"></path> 		 		 			<path d="m1419.3 479.9c-68.5 34.6-179.8 9.6-216.8-17.3-34.5-25 1.8-74.3 105-71.4 54.5 1.6 193.9 47.3 111.8 88.7z" fill="#8FFFF2"></path> 			<linearGradient id="q" x1="1319.3" x2="1319.3" y1="408.4" y2="501.71" gradientUnits="userSpaceOnUse"> 				<stop stop-color="#200066" offset="0"></stop> 				<stop stop-color="#527CB3" offset="1"></stop> 			</linearGradient> 			<path d="m1418.8 485.7c-68.5 34.6-174.9 7.3-212-19.6-34.5-25 1-59.7 104.2-56.7 54.5 1.5 189.8 34.9 107.8 76.3z" fill="url(#q)"></path> 		 		 			<path d="m1526.1 508.2c19.1 9.4 52.8-7 62.9-18.9 9.4-11.1-3.6-28.8-32.1-22.5-15 3.4-53.6 30.2-30.8 41.4z" fill="#8FFFF2"></path> 			<linearGradient id="p" x1="1553.6" x2="1553.6" y1="477.25" y2="513.22" gradientUnits="userSpaceOnUse"> 				<stop stop-color="#200066" offset="0"></stop> 				<stop stop-color="#527CB3" offset="1"></stop> 			</linearGradient> 			<path d="m1526.3 510.4c19.1 9.4 48.4-6.2 58.5-18.1 9.4-11.1-0.5-22.2-29-15.8-15.1 3.3-52.4 22.6-29.5 33.9z" fill="url(#p)"></path> 		 		 			<path d="m957.5 430.8c12.3 19.6 36.3 22.5 45.2 16.9 8.3-5.2 3.3-26.6-18-36.5-11.2-5.2-42-3.8-27.2 19.6z" fill="#8FFFF2"></path> 			<linearGradient id="o" x1="979.29" x2="979.29" y1="412.07" y2="451.38" gradientUnits="userSpaceOnUse"> 				<stop stop-color="#200066" offset="0"></stop> 				<stop stop-color="#527CB3" offset="1"></stop> 			</linearGradient> 			<path d="m957.3 433c12.3 19.6 35.4 21.2 44.3 15.5 8.3-5.2 2.7-21.3-18.5-31.2-11.2-5.2-40.5-7.7-25.8 15.7z" fill="url(#o)"></path> 		 	 </g> <g clip-rule="evenodd" fill-rule="evenodd"> 	 		<linearGradient id="n" x1="956.66" x2="956.66" y1="1728.4" y2="855.39" gradientUnits="userSpaceOnUse"> 			<stop stop-color="#7D0FBD" offset="0"></stop> 			<stop stop-color="#FFFBC4" offset="1"></stop> 		</linearGradient> 		<path d="m725 1676.3c-26.3-38.4-60.4-68.7-93.2-100.5-1.4 1.9-2.9 3.7-4.4 5.5 8.1 12.4 7.9 24.8 4.1 37.2 19.8 12.8 30.8 33.7 38.7 57.5 27.8 8.8 43 26.6 51.5 49.1h-158.2c-22.4-10.5-32-26.4-32.3-46.1-17.6-10.2-26.4-25.3-22-47.5-10.2-19.3-10.9-38.5 0-57.8-4.2-14.2 1.2-28 14.4-41.3-2.5-14.2 3.7-28.4 18.6-42.7 2.1-6.5 4.8-12.4 8.1-17.4-11-22.1-19.4-47-24-75.9-20.5-31.2-40.1-63-58.1-95.8-25.7-46.6-41.1-133.8-2.8-170.6 138.8-133 260.3-210 440.3-277.9 47-17.7 139.8 10.3 169.2 50.9 120.9 166.7 186.9 367 287.4 546.7 27.2 48.6 77.6 84.3 95.1 137.2 14.5 43.7 23.1 98.2-3.9 138.1h-695.2c-11.1-16.2-22.2-32.5-33.3-48.7z" fill="url(#n)"></path> 		<linearGradient id="m" x1="949.15" x2="949.15" y1="1711.1" y2="871.78" gradientUnits="userSpaceOnUse"> 			<stop stop-color="#200066" offset="0"></stop> 			<stop stop-color="#C43D81" offset="1"></stop> 		</linearGradient> 		<path d="m692.4 1621.3c42.9 38.1 116 68.9 161.7 103.7h580.7c18.1-44.9 18.2-107.3-1.4-155.3-33.1-81.2-106.9-139.7-150-216-33-58.4-42.6-131.4-68.3-193.3-14.6 7.1-54.4 10.8-65.2-7.4-8.8-14.8-19.3-27.2-26.1-47 11.3 12.5 17.5 29.9 30.3 45.4 9.4 11.3 43.9 10.2 58.7 1.7-39.5-97.7-95.2-190-149.5-234.3-25.2 10.3-47.4 12.1-67.4 24.8 11.5-17.4 56.1-32.4 45.8-50.6-13.9-24.5-63-28-91.2-29.2-17.6-0.8-31 18-48.2 22-19.2 4.4-40.7-4.3-59.2 2.8-154.3 59.3-265.8 142.1-376.3 252.5-30.3 30.3-12.1 81.8 0 128.7 1.2 4.6 8.3 5.5 13.1 5.5 17.3 0 34.4-3.7 51.6-5.5-13.3 11.7-40.7 17.4-39.9 35.1 1.5 31.4 30.3 55 45.4 82.6 22.8-7 53.6-2.2 73.6 12 30.5 21.7 50.2 49.7 61.9 84.3-19.6-32.9-34.9-59.4-61.9-79.1-13.5-9.9-56.5-17.3-72.6-8.9 2.2 27.3 7.9 50.9 16.1 71.6 6.2-7 14.2-11.7 24.5-13.3 20.6-2.4 38.7 3.1 54.1 16.7-13.9-10-30.7-14.7-48.2-12.3-15.1 2.1-33.5 21.5-28.7 39.9-14.6-0.2-35.2 19.9-15.4 39.4-20-1.9-38.4 27.8-14.4 38-23.9 5-21.1 46.3-0.4 53.4-17.2 18.6-5.6 45.9 21.1 40.8-11 29.4 7.1 45.1 26.1 55.2h137.2c-9.3-23.9-31.7-30.3-51.9-36.7 4.9-31.4-4.3-48.7-33.6-67.5 4.5-14.7 3.4-34.5-16.3-40.7 35.9-6.9 34.3-37.4 22.4-46.3 20.8 5.4 31.6-1.8 32.4-19.8 4.1 17.8-6.3 27.5-18.2 31.5-1.5 11.6-5.5 19.9-10.4 27 19.4 16.7 39.6 32.3 58 48.6z" fill="url(#m)"></path> 		<linearGradient id="l" x1="959.79" x2="959.79" y1="1722.4" y2="903.9" gradientUnits="userSpaceOnUse"> 			<stop stop-color="#180447" offset="0"></stop> 			<stop stop-color="#570599" offset="1"></stop> 		</linearGradient> 		<path d="m1170.2 1197.8c75.4 122.1 184.6 225.7 237.4 359.1 20.9 52.8 10.3 123-28.9 168h-359.1c-117-19.5-233.9-87.1-350.9-176.3-0.1-13.2-1.6-26-4.9-37.9-9.5 17.8-25.2 20.2-43.9 14.8 11.9 31.8-1.5 45.6-24.4 52.6 19.8 11.2 25.3 27.1 21.7 46.1 25.1 15.4 45.4 36.1 51.9 72.2 24.7 0.1 32.5 14.4 40.7 28.4h-67.2c-4.6-5.8-4.5-11.1 0-16-39.2 2-60.4-14.1-60.2-51.6-18.9 1.2-24.3-8.1-14.8-28.9-25.6-19.6-21.6-34.9-3.1-48.2-10.7-12.1-3.7-22.3 11.4-31.6-13.5-17.9-9.8-31.8 16.2-40.6-0.8-12.9-0.7-25.4 11.4-33.7 17-5.8 29.2-4 40.7-1.2-7.2-8.2-16.1-15-27.1-20.1 28.4-12.2 49.2 24.6 70.2 49.5-21.9-73.1-46.8-141.2-117.6-134.8-28.1-37.1-35.2-70.7-19.3-100.4-24.7-47.8-37.9-96.4-48.8-145.2 15.4 32 30.7 49.7 46.1 46.9 91.3-110.4 216.3-182.6 362.6-230.6-16.5-13.1-33-26.1-49.5-39.2 46.1 11.4 91.8 30.3 136.9 59.2 19.7 1.1 43.4-8.5 59.2 3.4 31 23.5 38.1 79.8 57.1 119.7-1 54.6 16.5 93.5 56.2 116.4z" fill="url(#l)"></path> 	 	 		<linearGradient id="k" x1="1084.4" x2="1084.4" y1="1739.8" y2="733.78" gradientUnits="userSpaceOnUse"> 			<stop stop-color="#7D0FBD" offset="0"></stop> 			<stop stop-color="#FFFBC4" offset="1"></stop> 		</linearGradient> 		<path d="m1096.4 1252.3c40.8-14.8 84-21.9 126.6-30.3 32.3-6.3 73.2-14.1 97.7-13.8-13.5-22.5-21.9-64.1-35.8-94.9-9.5-21.2-22.4-42.2-43.3-52.3-56.3-27.2-102.9 1.8-108.4-34.4-6.1-40.7 82.6-57 85.7-77.1 7.4-49.1-19.1-110-33-153.4-12.5-39 30.7-56.3 41.6-22.2 6.5 20.3 26.7 68.1 35.2 64 10.4-5-13.4-60.4-16.3-87.8-3.3-31.9 37.8-41.5 47.1-12.4 10 31.2 20.9 92.5 35.5 92.6 14 0.1 5.2-54.3 5-79.7-0.3-27.6 40.8-28.1 43.9 3.7 2.2 23 4.7 73.1 15.4 70 5.2-1.5 10.5-26.9 16.9-49.7 8-29 43.2-22.8 34.7 17.5-7.2 34.3-8.8 98.3-5.9 108.5 10.9 38.2-0.1 79.4 13.8 116.6 18.5 49.6 47.1 94.9 68.5 143.4 19.9 45 54 87.7 55.3 136.9 1.2 44.3-20.8 89-48.2 123.8-23.8 30.3-65.8 40.3-97.7 61.9-21.1 14.3-36.5 31.4-61.2 45.8 23.7 39.4 35.3 66.7 61.2 98.6 25.5 31.3 63.8 64.9 72.5 97h-911.1c7.1-14.5 12.7-29.8 21.3-43.4 12.8-20.2 30.3-37.3 42.7-57.8 18.4-30.6 27.2-67.1 49.5-94.9 44.3-55.1 93.2-107.5 148.6-151.4 38.3-30.3 86-46.4 129.3-68.8 37.4-18.9 73.3-41.7 112.9-56z" fill="url(#k)"></path> 		<linearGradient id="i" x1="1083" x2="1083" y1="1711.1" y2="741.45" gradientUnits="userSpaceOnUse"> 			<stop stop-color="#200066" offset="0"></stop> 			<stop stop-color="#C43D81" offset="1"></stop> 		</linearGradient> 		<path d="m691.5 1564.8c35.7-46.9 73-93.2 117-132.4 45.2-40.3 95.7-75 148.6-104.6 47.5-26.5 98-49 150.7-62.6 44.6-11.5 92.2-4.2 137.6-11.7 15-2.5 27.3-13.7 42-17.9 13.8-3.9 26.2-15.1 40.6-14.4 15.8 0.7 6.5-8.9 6.9-17.2 0.8-16.4-17-20.6-24.3-35.5-4.6-9.4-1.3-30.8-8.7-38.1-21.1-20.7-23.3-60-61.2-76.4-28.8-12.5-87.9-10-92.9-15.8-30.6-35.9 45.1-50.5 79.1-79.8 29.6-25.5-9.1-77.7-15.1-116.3-4.1-26.4-32.2-68.2-15.2-78.6 30.7-18.7 46.3 85.9 70.9 81.3 18.8-3.5-40.5-111.3-2.1-116.3 42.6-5.5 37.3 116.5 71.6 107.3 16.5-4.4-13.8-93.9 18.9-96.5 32.7-2.5 16.9 90.1 34.1 92.4 26.4 3.5 21.9-67.2 40.6-68.8 28.4-2.4 0.2 79.8 2.1 119.7 2 42.3 7.6 73.1 11.7 116.1 5.7 59.7 53.1 117.4 74.3 173.5 18.8 49.9 52 101.4 43.3 154.1-8.4 51.2-42.4 105.4-89.4 127.3-51.1 23.7-75.7 45.4-113.5 68.1 20.4 42.2 35.8 87.2 61.2 126.6 18.8 29.1 46.8 51.1 70.2 76.6h-887.5c6.7-16.9 9.7-35.8 20-50.8 4.4-6.4 16.1-3.6 21.3-9.3 6.5-7.1 6-18.7 11.7-26.5 3.3-4.5 11.2-4.2 14.1-8.9 5.7-9.3 5.7-21.1 10.3-31 1.5-3.2 6.4-4.2 7.6-7.6 2.5-8.2-1.8-19 3.5-26zm269.9 13.8c15 6.7 33.4 8.4 45 20.1 15.5 15.7 13.3 46.1 32 57.8 12 7.5 27.1-8.3 40.6-12.4-29.5 4.7-48.7-17.3-59-38.5-12.8-26.5-11.4-26.3-27.8-33.9-7.2-3.3-24 2.9-30.8 6.9z" fill="url(#i)"></path> 		<linearGradient id="h" x1="1090.3" x2="1090.3" y1="1725" y2="738.99" gradientUnits="userSpaceOnUse"> 			<stop stop-color="#180447" offset="0"></stop> 			<stop stop-color="#570599" offset="1"></stop> 		</linearGradient> 		<path d="m619.3 1725c-3-8 5.2-42.8 22-46.8 10.6-2.5 25 7.5 38.8 12.4 22.4 7.8 43.2 12.8 43.8 9.7 1-5.2-78.5-26.8-70.2-41.3 8.4-14.6 70.6 39 79.8 27.5 7-8.7-66.7-36.3-60.5-45.4 9.2-13.7 75.2 43.3 83.6 37.2 11.9-8.8-77.9-50-74-60.5 6.4-17.3 91.7 52.4 101.8 44 10.3-8.5-68.6-41.5-85.3-75.7-8.2-16.8 10.9-37.1 23.4-50.9 53.3-58.9 106-120.9 172-165.1 50.5-33.9 114.8-40.4 170.6-64.7 21.5-9.3 37.7-30.4 60.5-35.8 34-7.9 70.2-8.3 104.6-2.8 33.2 5.4 84.2 154.2 104.6 143.1 11.4-6.2-74.8-132.6-59.2-144.5 14.4-10.9 68 130.5 83.9 125.2 12.8-4.3-68.8-124.7-56.4-133.5 11.9-8.4 60.9 113.6 81.2 110.1 23.2-4-69.4-105.6-55-112.8 9-4.5 30.9 17.2 48.3 43.8 16.7 25.5 29 55.8 35.6 52.6 8.6-4.2-9.6-35.7-30.8-61.1-20.9-25-44.7-43.9-40.7-49 14.6-18.8 78 48.1 91.9 23 10.5-18.8-70-22.4-80.9-51.9-2.6-6.9 6.9-15.9 2.8-22-11.4-17-57.6-24.9-45.4-41.3 18.2-24.4 90.2-3.1 89.4-17.9-0.5-9.9-67.7 6.6-96.3-8.3-22.3-11.6-22.6-46.4-41.3-63.3-14.8-13.3-35.6-19-55-23.4-15.7-3.5-43.8 15.4-48.2 0-5.4-19 19.6-35.1 34.4-48.2 8.7-7.7 23.5-4.3 33-11 12.8-9 30.2-18.9 31.6-34.4 1.5-16-19.4-26.1-24.8-41.3-6.3-18-4.1-38.2-9.6-56.4-5.1-16.9-18.9-30.8-22-48.2-1.7-9.4 1.2-34 8.3-27.5 26.8 24.6 28.3 74 60.5 90.8 17.5 9.1 1.6-39.5 0-59.2-1.2-15.3-9.2-30.1-8.3-45.4 0.5-8 5.1-24.1 12.4-20.6 11.5 5.5 10.3 23.3 16.5 34.4 14.5 26.1 18.3 64.7 45.4 77.1 15.7 7.1 10.9-32.8 15.1-49.5 4.2-16.8-3.5-40.4 10.1-51.1 9.7-7.6 5.2 24.2 9.1 36 7 20.9 1.4 63.8 23.4 61.9 26-2.3 14.9-60 39.9-67.4 18.1-5.3-1.2 37.7-2.8 56.4-1.6 19.8-7.4 39.3-6.9 59.2 0.4 18.6 7.8 36.5 9.6 55 2.3 22.8-2.7 46.5 2.8 68.8 5.8 23.7 33.1 42.2 30.4 66.5-2.3 21.3-47.1 42.3-42.8 47.7 5.2 6.7 44.7-25.4 61.9-13.2 22.5 16.1 17.5 52.6 28.9 77.8 13.9 30.7 42.7 56 46.8 89.4 2.6 21.4-22.3 37.3-28.9 57.8-6 18.5-1 39.7-8.3 57.8-5.6 13.9-17.2 25.1-28.9 34.4-13.5 10.7-29.9 17.3-45.4 24.8-13.9 6.7-29.8 9.3-42.7 17.9-11.1 7.4-16 35.5-27.5 28.9-16.7-9.6-6.6-56-17.9-55-10.3 0.9 3.6 62.6-13.8 55-30.2-13.2-38.9-94.3-52.3-83.9-11.2 8.7 39.7 83.2 55 126.6 7.3 20.7 2.7 45 12.4 64.7 8.9 18 30.5 27 41.3 44 6.3 10 0.5 25.5 8.3 34.4 13.8 15.7 34.9 23 52.3 34.4h-139.7c-7.3-20.4-16.2-40.3-21.3-61.3-3.6-15.2 3.5-33.1-4.1-46.8-26.7-47.9-61.7-90.9-96.3-133.5-3.3-4-10.2-4.9-15.1-3.4-16.5 5-31.2 14.7-46.8 22 11.7-4 32.4-11.6 45.8-14.7 6.5-1.5 11.4-1.9 12.6-0.2 34.8 45.2 66 86.3 92.9 136.7 7.4 13.8-0.4 31.2 0.7 46.8 0.5 6.8 7.4 14 4.1 20-7.9 14.2-22.9 23-34.4 34.5h-352.5c-6-18.3-26.6-37.8-17.9-54.9 17.2-33.9 46.6-77.1 84.6-76.4 33.1 0.6 37.7 54.5 59.9 79.1 3.5 3.9 10.5 6.6 15.1 4.1 31.9-16.9 61.8-37.5 90.1-59.9 3.3-2.6 3.5-8.8 1.4-12.4-16.5-28.4-37.2-54.1-55.7-81.2 14.2 27.5 39.1 71.9 33.4 79.1-21.4 27.1-54.1 45.2-72.6 46.1-24.3 1.2-18.4-59.3-61.6-71.9-5.5-1.6-22.2-2.2-26.5 1.7-28.8 26.3-61.4 52.3-77.1 88.1-8 18.3 8.7 38.9 13.1 58.4h-278zm636.2-37.3c-3.9 2.7-8.7 4.2-13.8 4.2-13.6 0-24.6-11-24.6-24.6 0-5.7 1.9-10.9 5.1-15.1-6.5 4.4-10.8 11.9-10.8 20.4 0 13.6 11 24.6 24.6 24.6 7.9 0.1 15-3.7 19.5-9.5zm-13.2-48.8c-5.6 0-10.9 1.5-15.4 4.1 2.9-0.9 5.9-1.3 9-1.3 17.1 0 31 13.9 31 31 0 11.5-6.3 21.5-15.6 26.9 12.7-3.9 21.9-15.7 21.9-29.6 0.1-17.2-13.8-31.1-30.9-31.1z" fill="url(#h)"></path> 	 	 		<linearGradient id="g" x1="880.22" x2="880.22" y1="1571" y2="987.62" gradientUnits="userSpaceOnUse"> 			<stop stop-color="#7D0FBD" offset="0"></stop> 			<stop stop-color="#FFFBC4" offset="1"></stop> 		</linearGradient> 		<path d="m850.5 1597.3c-41.8-15.5-83.7-35.9-125.5-82-15.4-25-30.3-50.4-20.6-98.5-49.8-25-109.2-119.8-127.7-184.6 0.2-21.4 4.4-39 27.5-53.8-18.6-151.9 193.9-283.1 311-196.6 24.8-12.9 49-11 73.9 1.3 45.1 34.1 91.6 126 100.8 213 42.2-1.1 67.8 24 83.2 65 13.8 62.6 12.4 116.1 7.1 167.2-92 93.1-201.5 150.2-329.7 169z" fill="url(#g)"></path> 		<linearGradient id="f" x1="885.12" x2="885.12" y1="1578.9" y2="968.18" gradientUnits="userSpaceOnUse"> 			<stop stop-color="#200066" offset="0"></stop> 			<stop stop-color="#C43D81" offset="1"></stop> 		</linearGradient> 		<path d="m583.1 1228.3c4.3-17.2 11.8-30.9 23.4-39.9 3.9 14.8 10.1 25.5 17.2 34.4-17.3-95.8 17.6-158 73.6-204.3 43.9-36.3 118.3-48.1 165.8-41.3 25.8 3.7 42.5 12.8 61.2 23.4 17 10.2 37.5 33.9 48.8 57.1-6.4-27.7-19.9-47.1-38.5-65.4 17-9.3 33.9-8.6 50.9-1.4 60.7 63.7 88.8 138.6 101.8 218.8-11 11.9-22 23.9-33 35.8-8.8-54.9-23.4-108.7-70.9-156.2-58.2-42.3-122.9-29.5-187.1 11-67.6 42.6-95.5 105.5-99.1 149 21.8-64.1 76.9-126.8 125.9-125.6 44.1 74.8 160.7 33.3 151.4-4.1 36.3 13.4 62.5 82.5 75 141.7-19.4 70.1-63.4 110.2-112.1 144.5 60.2-29.8 106.7-75.9 126.6-153.4 26-21.7 51.5-31.3 75.7-14.4 33.3 35.1 45.4 88.3 47.5 150-1.8 17.7-3.7 35.3-5.5 53-38.5 29.4-77.1 58.7-115.6 88.1-48.6 20.6-97.2 41.3-145.9 61.9-41.1 6.9-45.7 7.7-86.8 14.5-83.3-48.8-120-118.5-117.5-183.4 27.3 6.2 55.6 7.3 84.8 4.3-46.1-2.2-93.1-19.4-141.9-66.6-31.4-34-56.3-78.2-75.7-131.5zm422.4 214c42.9-26.3 78.6-66.7 88.1-133.9-18.1 52.3-49.6 95.5-88.1 133.9zm-238.7 15.8c35 17.9 76.5 25.2 125.2 4.1-42.2 9.3-83.9 5.9-125.2-4.1z" fill="url(#f)"></path> 		<linearGradient id="e" x1="896.69" x2="896.69" y1="1630.1" y2="1028.9" gradientUnits="userSpaceOnUse"> 			<stop stop-color="#180447" offset="0"></stop> 			<stop stop-color="#570599" offset="1"></stop> 		</linearGradient> 		<path d="m623.7 1222.8c8.5 14.2 18.8 24.6 31 30.6-1.9-76.4 83.3-233.4 226.3-220.8 8.1 3.8 14.2 9 17.2 16.5-114.9 13.8-221.2 135.9-204.7 221.9 17.7 20.6 57.1 36.9 80.2 23.7 93.1-53.3 214-126.6 251.8-39.2-1.5 68.1-43.6 114.7-95.6 156.2 63.2-24.1 117-66.5 150-149.3 11.4-2.3 14.8 3.9 10.7 18.2-16 62.9-51.3 117.8-93.9 169.7 70.8-33.7 121.1-92.2 139.6-189.1 25.8 1.8 37.6 36.7 41.4 90.8 19.5 46.4 14.8 76.3 4.8 102.5l-131.4 88.8c-59.2 22.7-118.3 45.4-177.5 68.1-15.6 0.2-31.2 0.5-46.8 0.7-33.9-30.4-55.3-68.2-62.6-114.2 71.9 3.4 130.4-14.5 164.4-45.1-68.9 15.2-128.9 18.7-187.1-10.7 34.9-0.4 65.2-4.9 90.1-14.4-95.7-8.9-177.4-55.3-229.1-181.6 3-10.3 7.5-19.6 21.2-23.3z" fill="url(#e)"></path> 	 </g>      </svg>